<?xml version="1.0" standalone="no"?>
<!DOCTYPE svg PUBLIC "-//W3C//DTD SVG 20010904//EN"
 "http://www.w3.org/TR/2001/REC-SVG-20010904/DTD/svg10.dtd">
<svg version="1.0" xmlns="http://www.w3.org/2000/svg"
 width="920.000000pt" height="829.000000pt" viewBox="0 0 920.000000 829.000000"
 preserveAspectRatio="xMidYMid meet">

<g transform="translate(0.000000,829.000000) scale(0.100000,-0.100000)"
fill="#000000" stroke="none">
<path d="M5348 7970 c-146 -11 -322 -42 -456 -81 l-102 -30 -113 23 c-94 19
-145 23 -322 23 -139 0 -234 -5 -280 -14 -102 -20 -265 -75 -331 -111 -33 -19
-65 -30 -78 -27 -11 2 -91 23 -176 45 -634 166 -1167 123 -1495 -120 -236
-175 -367 -417 -426 -788 -21 -131 -18 -478 4 -615 91 -547 277 -1216 462
-1670 133 -324 264 -547 404 -685 189 -186 367 -205 557 -59 l61 47 28 -29
c52 -56 155 -94 360 -134 250 -49 375 -44 529 21 44 19 81 34 81 34 0 0 1 -82
3 -183 6 -354 44 -723 88 -862 49 -152 163 -284 306 -355 109 -53 203 -73 353
-73 135 0 294 31 439 84 264 98 417 258 485 509 36 131 86 472 127 858 l17
163 26 -5 c114 -22 329 -13 491 20 96 20 229 66 286 99 199 117 362 372 338
527 -13 75 -76 139 -152 151 -23 4 -97 -3 -187 -18 -151 -25 -415 -36 -415
-16 0 4 22 46 48 92 438 761 723 1707 672 2234 -21 220 -68 315 -239 485 -253
251 -573 404 -941 449 -120 15 -325 20 -452 11z m362 -170 c356 -43 604 -145
838 -342 77 -66 195 -196 220 -245 21 -38 53 -195 62 -302 48 -534 -273 -1517
-728 -2231 l-41 -65 22 -11 c74 -39 272 -43 452 -8 50 10 127 18 173 19 l84 0
34 -37 c83 -91 19 -206 -193 -348 -191 -128 -542 -195 -804 -155 -41 6 -48 5
-58 -12 -5 -11 -22 -123 -36 -249 -36 -313 -81 -627 -110 -759 -34 -153 -94
-273 -181 -360 -121 -121 -351 -210 -569 -222 -176 -9 -278 21 -412 120 -138
103 -215 296 -242 612 -18 209 -21 284 -21 553 l0 263 -64 -46 c-196 -139
-463 -172 -727 -89 -130 41 -202 109 -203 193 -2 97 62 141 282 195 192 47
217 59 292 147 l64 74 -75 12 c-72 12 -129 30 -197 60 -27 13 -35 13 -48 2
-24 -20 -233 -254 -358 -402 -161 -190 -248 -248 -372 -248 -86 0 -145 21
-224 80 -107 80 -210 222 -313 426 -167 335 -337 873 -457 1443 -80 383 -84
416 -84 662 -1 140 4 255 12 305 68 412 226 656 511 787 324 150 798 150 1314
-2 73 -21 143 -43 157 -48 25 -9 51 3 160 74 47 30 175 69 285 85 122 19 371
16 525 -6 69 -9 130 -17 135 -17 6 0 66 14 135 31 108 27 254 52 370 64 79 8
311 6 390 -3z"/>
<path d="M5360 7644 c-25 -2 -96 -11 -158 -20 l-113 -16 107 -59 c381 -208
717 -613 853 -1029 27 -83 28 -229 1 -405 -33 -210 -35 -352 -11 -561 39 -338
20 -515 -76 -708 -18 -34 -21 -52 -14 -59 14 -14 22 -3 120 168 217 382 381
773 490 1173 121 439 143 824 58 989 -9 17 -53 70 -98 117 -209 221 -457 345
-794 397 -69 10 -299 19 -365 13z"/>
<path d="M4285 7583 c-249 -25 -426 -104 -580 -257 -45 -44 -105 -116 -134
-159 -71 -105 -145 -275 -186 -423 -32 -116 -75 -340 -75 -390 l0 -24 68 33
c231 116 492 139 651 57 50 -25 138 -121 162 -176 25 -57 63 -233 84 -388 18
-137 20 -332 4 -442 -15 -110 -70 -293 -122 -410 -41 -92 -137 -345 -137 -362
0 -5 15 -6 34 -4 94 11 215 -68 268 -175 l33 -68 6 -530 c9 -709 25 -853 112
-1018 46 -87 99 -142 175 -179 64 -32 71 -33 187 -33 143 1 230 22 372 92 149
72 222 177 263 375 45 222 123 841 150 1191 15 183 67 276 187 329 l44 19 -24
32 c-85 113 -133 190 -202 322 -43 83 -117 227 -166 320 -188 364 -264 642
-230 840 15 86 40 135 104 202 94 99 211 138 418 138 l136 0 -15 35 c-169 407
-456 728 -808 904 -102 50 -295 113 -404 130 -90 15 -310 26 -375 19z"/>
<path d="M2690 7569 c-287 -24 -515 -144 -648 -343 -141 -211 -203 -571 -157
-918 14 -105 85 -478 118 -613 223 -927 509 -1541 747 -1605 80 -22 145 20
283 184 100 118 256 294 325 368 l35 37 -53 58 c-186 202 -249 430 -209 753
13 105 16 319 11 635 -4 243 26 468 93 699 58 200 183 435 300 564 26 29 46
54 44 57 -9 8 -322 85 -404 99 -168 28 -341 37 -485 25z"/>
<path d="M5680 6329 c-151 -11 -248 -68 -280 -164 -18 -55 -7 -241 20 -335 34
-119 117 -313 203 -475 44 -82 109 -206 145 -274 l65 -123 13 32 c52 123 62
322 29 560 -24 173 -23 353 3 530 12 80 23 168 24 195 l3 50 -70 5 c-38 3
-108 2 -155 -1z m32 -69 c50 -14 61 -37 41 -79 -32 -66 -125 -101 -186 -70
-31 16 -77 60 -77 74 0 16 40 50 75 63 63 23 96 26 147 12z"/>
<path d="M3715 6299 c-120 -18 -300 -88 -385 -149 l-25 -18 3 -249 c2 -177 -1
-290 -12 -393 -9 -80 -16 -170 -16 -200 1 -154 77 -336 188 -447 98 -99 252
-173 358 -173 31 0 31 0 74 128 24 70 65 175 91 234 117 262 154 465 130 718
-15 151 -56 370 -80 425 -45 101 -168 148 -326 124z m205 -91 c45 -13 80 -45
80 -73 0 -48 -75 -105 -137 -105 -59 0 -144 63 -157 116 -17 68 89 99 214 62z"/>
<path d="M5887 4476 c-70 -25 -92 -61 -100 -159 -5 -60 3 -64 119 -78 163 -18
421 24 555 91 65 33 182 110 176 116 -2 2 -37 -3 -78 -11 -41 -9 -141 -18
-224 -21 -167 -7 -244 5 -335 51 -56 29 -61 29 -113 11z"/>
<path d="M4007 4437 c-18 -18 -65 -72 -105 -119 -105 -126 -153 -150 -405
-208 -54 -13 -100 -27 -102 -31 -8 -13 97 -47 185 -60 151 -22 331 9 429 74
116 77 199 186 185 244 -29 121 -121 170 -187 100z"/>
<path d="M5622 1574 c-187 -41 -266 -130 -266 -299 0 -108 22 -172 79 -224 50
-46 134 -75 339 -117 277 -55 334 -76 374 -137 34 -52 43 -156 18 -222 -23
-59 -82 -111 -148 -129 -130 -36 -317 -27 -414 20 -97 46 -164 149 -164 251
l0 33 -65 0 -64 0 4 -27 c2 -16 7 -49 10 -74 13 -106 95 -218 190 -260 118
-52 374 -70 518 -35 181 43 257 130 265 301 10 232 -63 292 -453 371 -212 43
-259 58 -312 100 -51 42 -67 85 -61 169 9 143 106 205 324 205 215 0 322 -70
349 -227 l7 -43 60 0 61 0 -6 54 c-16 153 -118 253 -297 291 -87 18 -262 18
-348 -1z"/>
<path d="M6773 1570 c-217 -57 -363 -202 -418 -415 -21 -81 -21 -299 0 -380
49 -191 179 -339 353 -402 148 -54 379 -52 533 3 81 29 71 33 184 -64 l70 -61
40 39 c21 22 37 41 35 43 -3 2 -44 36 -92 76 l-88 73 45 45 c53 54 119 184
136 268 17 85 14 266 -5 349 -24 101 -72 191 -145 269 -88 94 -171 138 -309
166 -84 17 -256 13 -339 -9z m338 -86 c128 -38 239 -126 293 -233 85 -166 85
-401 1 -577 -64 -134 -194 -223 -355 -244 -285 -38 -498 94 -576 355 -25 82
-25 276 0 360 51 173 157 282 325 336 74 24 237 25 312 3z"/>
<path d="M7670 960 l0 -600 433 2 432 3 0 45 0 45 -373 0 -372 0 0 553 0 552
-60 0 -60 0 0 -600z"/>
<path d="M670 921 l0 -501 49 0 50 0 -3 209 -2 209 230 4 c214 4 235 6 282 27
105 46 158 135 158 266 -1 128 -52 219 -149 262 -35 15 -79 18 -327 21 l-288
4 0 -501z m575 392 c62 -32 90 -90 89 -183 0 -84 -15 -122 -64 -163 -46 -39
-114 -49 -320 -45 l-185 3 -1 200 c0 110 1 204 4 208 2 5 102 7 221 5 198 -3
219 -5 256 -25z"/>
<path d="M3050 1180 l0 -110 -55 0 c-54 0 -55 0 -55 -30 0 -30 1 -30 55 -30
l55 0 0 -255 c0 -286 4 -305 65 -331 19 -8 64 -14 100 -14 l65 0 0 33 c0 33
-1 34 -44 35 -65 0 -83 9 -95 44 -7 19 -11 121 -11 260 l0 230 75 -4 75 -3 0
33 0 32 -75 0 -75 0 0 110 0 110 -40 0 -40 0 0 -110z"/>
<path d="M1690 1079 c-52 -16 -135 -75 -162 -117 -45 -67 -53 -100 -53 -222 0
-106 2 -120 28 -172 64 -130 204 -193 377 -168 83 12 140 38 193 89 51 47 73
93 88 176 31 177 -39 336 -173 396 -43 18 -74 23 -158 26 -58 1 -121 -2 -140
-8z m233 -70 c47 -12 102 -60 130 -113 19 -35 22 -57 22 -151 0 -94 -3 -116
-22 -151 -58 -109 -195 -160 -327 -120 -67 20 -110 58 -142 122 -23 47 -28 70
-28 138 -1 102 21 170 72 218 46 45 72 58 131 68 49 8 101 4 164 -11z"/>
<path d="M2405 1075 c-27 -8 -53 -14 -56 -15 -3 0 -19 -14 -37 -31 -40 -39
-59 -116 -43 -175 22 -83 68 -105 315 -144 72 -12 138 -26 147 -31 31 -16 49
-52 49 -97 0 -83 -68 -122 -216 -122 -137 0 -214 42 -230 125 -6 34 -8 35 -51
35 l-45 0 7 -37 c25 -132 116 -184 322 -184 217 0 311 67 301 213 -3 47 -10
64 -33 88 -44 46 -84 60 -266 90 -115 19 -176 33 -189 45 -41 38 -42 112 -1
149 47 43 187 60 274 34 51 -15 94 -59 103 -103 6 -34 8 -35 51 -35 l45 0 -7
33 c-27 128 -110 178 -294 176 -53 0 -118 -7 -146 -14z"/>
<path d="M3491 1071 c-65 -23 -97 -46 -138 -100 -38 -49 -53 -93 -60 -182 -19
-231 120 -370 355 -357 105 6 164 29 217 85 l37 38 -4 -100 c-5 -112 -24 -163
-77 -208 -40 -34 -127 -51 -219 -44 -100 8 -141 30 -172 95 -24 49 -26 51 -68
52 -41 0 -42 -1 -36 -27 22 -91 88 -154 181 -173 31 -7 104 -10 162 -8 91 3
114 7 163 31 31 15 70 43 87 62 56 65 61 101 61 487 l0 348 -40 0 -40 0 0 -57
0 -57 -36 43 c-57 66 -102 84 -219 88 -79 3 -111 -1 -154 -16z m266 -67 c145
-52 191 -299 79 -431 -45 -53 -107 -77 -199 -76 -107 2 -177 35 -222 107 -28
47 -30 55 -30 150 0 109 11 142 64 199 63 69 196 90 308 51z"/>
<path d="M4317 1076 c-47 -17 -73 -40 -98 -86 l-18 -35 -1 58 0 57 -45 0 -45
0 0 -325 0 -325 45 0 45 0 0 198 c0 212 8 263 50 322 32 45 91 70 168 70 l62
0 0 40 0 40 -62 0 c-35 -1 -80 -7 -101 -14z"/>
<path d="M4720 1076 c-66 -19 -102 -40 -143 -85 -44 -49 -61 -81 -77 -150 -29
-125 11 -284 91 -356 112 -101 287 -121 434 -49 62 31 98 68 126 129 27 59 25
65 -26 65 -30 0 -45 -4 -45 -13 0 -7 -14 -35 -30 -61 -44 -69 -114 -99 -218
-94 -47 2 -92 11 -114 22 -80 39 -138 129 -138 213 l0 33 305 0 306 0 -7 53
c-14 108 -56 195 -118 242 -76 58 -236 81 -346 51z m231 -70 c71 -34 130 -110
145 -185 l7 -31 -84 -1 c-46 -1 -164 -2 -262 -3 l-179 -1 6 34 c15 93 74 164
163 197 49 18 157 13 204 -10z"/>
</g>
</svg>
